<svg width="1200" height="630" viewBox="0 0 1200 630" fill="none" xmlns="http://www.w3.org/2000/svg">
<path d="M133.169 404.619L105.017 375.964L229.271 247.438L355.116 375.964L325.875 401.938L229.271 307.931L133.169 404.619Z" fill="#18C95F"/>
<rect x="131.85" y="151.503" width="71.3124" height="42.3853" transform="rotate(44.4498 131.85 151.503)" fill="#18C95F"/>
<rect x="315.151" y="255.929" width="71.3124" height="42.3853" transform="rotate(-0.292502 315.151 255.929)" fill="#18C95F"/>
<rect x="71" y="255.594" width="71.3124" height="42.3853" transform="rotate(-0.292502 71 255.594)" fill="#18C95F"/>
<rect x="209.078" y="394.481" width="39.8818" height="40.3845" fill="#18C95F"/>
<rect x="209.078" y="120" width="39.8818" height="71.5527" fill="#18C95F"/>
<rect x="275.269" y="202.221" width="71.3124" height="42.3853" transform="rotate(-45.7175 275.269 202.221)" fill="#18C95F"/>
<path d="M539.36 284.656C529.562 284.656 521.144 282.586 514.106 278.446C507.068 274.306 501.686 268.027 497.96 259.609C494.234 251.053 492.371 240.289 492.371 227.317C492.371 214.207 494.303 203.443 498.167 195.025C502.169 186.607 507.689 180.328 514.727 176.188C521.765 172.048 529.976 169.978 539.36 169.978C549.848 169.978 559.232 172.324 567.512 177.016C575.93 181.708 582.554 188.332 587.384 196.888C592.352 205.444 594.836 215.587 594.836 227.317C594.836 238.909 592.352 248.983 587.384 257.539C582.554 266.095 575.93 272.788 567.512 277.618C559.232 282.31 549.848 284.656 539.36 284.656ZM473.534 283V129.406H505.826V194.197L503.756 227.11L504.377 260.23V283H473.534ZM533.771 258.16C539.153 258.16 543.914 256.918 548.054 254.434C552.332 251.95 555.713 248.431 558.197 243.877C560.819 239.185 562.13 233.665 562.13 227.317C562.13 220.831 560.819 215.311 558.197 210.757C555.713 206.203 552.332 202.684 548.054 200.2C543.914 197.716 539.153 196.474 533.771 196.474C528.389 196.474 523.559 197.716 519.281 200.2C515.003 202.684 511.622 206.203 509.138 210.757C506.654 215.311 505.412 220.831 505.412 227.317C505.412 233.665 506.654 239.185 509.138 243.877C511.622 248.431 515.003 251.95 519.281 254.434C523.559 256.918 528.389 258.16 533.771 258.16ZM616.453 283V171.634H647.296V203.098L642.949 193.99C646.261 186.124 651.574 180.19 658.888 176.188C666.202 172.048 675.103 169.978 685.591 169.978V199.786C684.211 199.648 682.969 199.579 681.865 199.579C680.761 199.441 679.588 199.372 678.346 199.372C669.514 199.372 662.338 201.925 656.818 207.031C651.436 211.999 648.745 219.796 648.745 230.422V283H616.453ZM704.994 283V171.634H737.286V283H704.994ZM721.14 156.109C715.206 156.109 710.376 154.384 706.65 150.934C702.924 147.484 701.061 143.206 701.061 138.1C701.061 132.994 702.924 128.716 706.65 125.266C710.376 121.816 715.206 120.091 721.14 120.091C727.074 120.091 731.904 121.747 735.63 125.059C739.356 128.233 741.219 132.373 741.219 137.479C741.219 142.861 739.356 147.346 735.63 150.934C732.042 154.384 727.212 156.109 721.14 156.109ZM819.627 324.814C809.139 324.814 798.996 323.503 789.198 320.881C779.538 318.397 771.465 314.602 764.979 309.496L777.813 286.312C782.505 290.176 788.439 293.212 795.615 295.42C802.929 297.766 810.105 298.939 817.143 298.939C828.597 298.939 836.877 296.386 841.983 291.28C847.227 286.174 849.849 278.584 849.849 268.51V251.743L851.919 223.798L851.505 195.646V171.634H882.141V264.37C882.141 285.07 876.759 300.319 865.995 310.117C855.231 319.915 839.775 324.814 819.627 324.814ZM814.659 277.618C804.309 277.618 794.925 275.41 786.507 270.994C778.227 266.44 771.534 260.161 766.428 252.157C761.46 244.015 758.976 234.562 758.976 223.798C758.976 212.896 761.46 203.443 766.428 195.439C771.534 187.297 778.227 181.018 786.507 176.602C794.925 172.186 804.309 169.978 814.659 169.978C824.043 169.978 832.323 171.91 839.499 175.774C846.675 179.5 852.264 185.365 856.266 193.369C860.268 201.235 862.269 211.378 862.269 223.798C862.269 236.08 860.268 246.223 856.266 254.227C852.264 262.093 846.675 267.958 839.499 271.822C832.323 275.686 824.043 277.618 814.659 277.618ZM821.076 251.122C826.734 251.122 831.771 250.018 836.187 247.81C840.603 245.464 844.053 242.221 846.537 238.081C849.021 233.941 850.263 229.18 850.263 223.798C850.263 218.278 849.021 213.517 846.537 209.515C844.053 205.375 840.603 202.201 836.187 199.993C831.771 197.647 826.734 196.474 821.076 196.474C815.418 196.474 810.381 197.647 805.965 199.993C801.549 202.201 798.03 205.375 795.408 209.515C792.924 213.517 791.682 218.278 791.682 223.798C791.682 229.18 792.924 233.941 795.408 238.081C798.03 242.221 801.549 245.464 805.965 247.81C810.381 250.018 815.418 251.122 821.076 251.122ZM979.885 169.978C988.717 169.978 996.583 171.772 1003.48 175.36C1010.52 178.81 1016.04 184.192 1020.04 191.506C1024.05 198.682 1026.05 207.928 1026.05 219.244V283H993.754V224.212C993.754 215.242 991.753 208.618 987.751 204.34C983.887 200.062 978.367 197.923 971.191 197.923C966.085 197.923 961.462 199.027 957.322 201.235C953.32 203.305 950.146 206.548 947.8 210.964C945.592 215.38 944.488 221.038 944.488 227.938V283H912.196V129.406H944.488V202.477L937.243 193.162C941.245 185.71 946.972 179.983 954.424 175.981C961.876 171.979 970.363 169.978 979.885 169.978ZM1100.86 284.656C1087.75 284.656 1077.54 281.344 1070.22 274.72C1062.91 267.958 1059.25 257.953 1059.25 244.705V147.001H1091.54V244.291C1091.54 248.983 1092.78 252.64 1095.27 255.262C1097.75 257.746 1101.13 258.988 1105.41 258.988C1110.52 258.988 1114.86 257.608 1118.45 254.848L1127.15 277.618C1123.83 279.964 1119.83 281.758 1115.14 283C1110.59 284.104 1105.83 284.656 1100.86 284.656ZM1042.07 198.958V174.118H1119.28V198.958H1042.07Z" fill="white"/>
<path d="M596.337 448.035C585.573 448.035 575.361 446.241 565.701 442.653C556.179 438.927 548.796 434.166 543.552 428.37L548.313 420.504C553.281 425.61 560.043 429.957 568.599 433.545C577.293 436.995 586.47 438.72 596.13 438.72C605.79 438.72 613.656 437.478 619.728 434.994C625.938 432.372 630.492 428.922 633.39 424.644C636.426 420.366 637.944 415.605 637.944 410.361C637.944 404.151 636.288 399.183 632.976 395.457C629.664 391.731 625.317 388.764 619.935 386.556C614.553 384.348 608.688 382.485 602.34 380.967C595.992 379.449 589.575 377.862 583.089 376.206C576.603 374.412 570.669 372.135 565.287 369.375C559.905 366.615 555.558 362.889 552.246 358.197C549.072 353.367 547.485 347.157 547.485 339.567C547.485 332.667 549.279 326.319 552.867 320.523C556.455 314.727 562.044 310.035 569.634 306.447C577.224 302.859 586.953 301.065 598.821 301.065C606.825 301.065 614.691 302.238 622.419 304.584C630.285 306.93 636.978 310.104 642.498 314.106L638.565 322.593C632.493 318.453 625.938 315.417 618.9 313.485C612 311.415 605.307 310.38 598.821 310.38C589.575 310.38 581.916 311.691 575.844 314.313C569.772 316.935 565.287 320.454 562.389 324.87C559.491 329.148 558.042 333.978 558.042 339.36C558.042 345.57 559.629 350.538 562.803 354.264C566.115 357.99 570.462 360.957 575.844 363.165C581.226 365.373 587.16 367.236 593.646 368.754C600.132 370.272 606.549 371.928 612.897 373.722C619.245 375.378 625.11 377.586 630.492 380.346C635.874 383.106 640.221 386.832 643.533 391.524C646.845 396.216 648.501 402.288 648.501 409.74C648.501 416.502 646.638 422.85 642.912 428.784C639.186 434.58 633.459 439.272 625.731 442.86C618.141 446.31 608.343 448.035 596.337 448.035ZM715.647 447.828C705.159 447.828 695.775 445.482 687.495 440.79C679.353 436.098 672.867 429.612 668.037 421.332C663.345 413.052 660.999 403.599 660.999 392.973C660.999 382.209 663.345 372.687 668.037 364.407C672.867 356.127 679.353 349.71 687.495 345.156C695.775 340.464 705.159 338.118 715.647 338.118C724.341 338.118 732.207 339.774 739.245 343.086C746.421 346.398 752.217 351.366 756.633 357.99L748.974 363.579C745.11 358.059 740.28 353.988 734.484 351.366C728.688 348.744 722.409 347.433 715.647 347.433C707.229 347.433 699.639 349.365 692.877 353.229C686.253 356.955 681.009 362.268 677.145 369.168C673.419 375.93 671.556 383.865 671.556 392.973C671.556 402.081 673.419 410.085 677.145 416.985C681.009 423.747 686.253 429.06 692.877 432.924C699.639 436.65 707.229 438.513 715.647 438.513C722.409 438.513 728.688 437.202 734.484 434.58C740.28 431.958 745.11 427.887 748.974 422.367L756.633 427.956C752.217 434.58 746.421 439.548 739.245 442.86C732.207 446.172 724.341 447.828 715.647 447.828ZM847.441 447V422.367L847.027 418.641V378.069C847.027 367.995 844.267 360.336 838.747 355.092C833.365 349.848 825.43 347.226 814.942 347.226C807.49 347.226 800.521 348.537 794.035 351.159C787.687 353.643 782.236 356.886 777.682 360.888L772.507 353.436C777.889 348.606 784.375 344.88 791.965 342.258C799.555 339.498 807.49 338.118 815.77 338.118C829.156 338.118 839.437 341.499 846.613 348.261C853.789 355.023 857.377 365.097 857.377 378.483V447H847.441ZM808.525 447.828C800.521 447.828 793.552 446.586 787.618 444.102C781.822 441.48 777.337 437.823 774.163 433.131C771.127 428.439 769.609 423.057 769.609 416.985C769.609 411.465 770.851 406.497 773.335 402.081C775.957 397.527 780.235 393.87 786.169 391.11C792.103 388.212 800.038 386.763 809.974 386.763H849.718V394.836H810.181C799.003 394.836 791.137 396.906 786.583 401.046C782.167 405.186 779.959 410.361 779.959 416.571C779.959 423.471 782.581 428.991 787.825 433.131C793.069 437.271 800.452 439.341 809.974 439.341C819.082 439.341 826.741 437.271 832.951 433.131C839.299 428.991 843.991 422.988 847.027 415.122L849.925 422.16C847.027 430.026 842.059 436.305 835.021 440.997C828.121 445.551 819.289 447.828 808.525 447.828ZM891.741 447V293.406H902.091V447H891.741ZM981.318 447.828C970.416 447.828 960.756 445.482 952.338 440.79C944.058 436.098 937.503 429.612 932.673 421.332C927.981 413.052 925.635 403.599 925.635 392.973C925.635 382.209 927.843 372.756 932.259 364.614C936.813 356.334 943.023 349.848 950.889 345.156C958.755 340.464 967.587 338.118 977.385 338.118C987.183 338.118 995.946 340.395 1003.67 344.949C1011.54 349.503 1017.68 355.92 1022.1 364.2C1026.65 372.342 1028.93 381.795 1028.93 392.559C1028.93 392.973 1028.86 393.456 1028.72 394.008C1028.72 394.422 1028.72 394.905 1028.72 395.457H933.294V387.384H1023.13L1018.99 391.317C1019.13 382.899 1017.34 375.378 1013.61 368.754C1010.02 361.992 1005.12 356.748 998.913 353.022C992.703 349.158 985.527 347.226 977.385 347.226C969.381 347.226 962.205 349.158 955.857 353.022C949.647 356.748 944.748 361.992 941.16 368.754C937.572 375.378 935.778 382.968 935.778 391.524V393.387C935.778 402.219 937.71 410.085 941.574 416.985C945.576 423.747 951.027 429.06 957.927 432.924C964.827 436.65 972.693 438.513 981.525 438.513C988.425 438.513 994.842 437.271 1000.78 434.787C1006.85 432.303 1011.95 428.508 1016.09 423.402L1022.1 430.233C1017.41 436.029 1011.47 440.445 1004.3 443.481C997.257 446.379 989.598 447.828 981.318 447.828Z" fill="white"/>
</svg>
